<?xml version="1.0" encoding="utf-8"?>
<!-- Generator: Adobe Illustrator 25.4.1, SVG Export Plug-In . SVG Version: 6.00 Build 0)  -->
<svg version="1.1" id="Layer_1" xmlns="http://www.w3.org/2000/svg" xmlns:xlink="http://www.w3.org/1999/xlink" x="0px" y="0px"
	 viewBox="0 0 455.7 124.7" style="enable-background:new 0 0 455.7 124.7;" xml:space="preserve">
<style type="text/css">
	.st0{fill:#008000;}
	.st1{fill:#FFFFFF;}
</style>
<g>
	<path class="st0" d="M196,14.3l243.2,0c1.3,0,2.3,1,2.3,2.3c0,0,0,0.1,0,0.1c-0.3,7.7-0.4,15.5-0.2,23.4c0.1,2.9-5.7,3.8-5.9-0.9
		c-0.2-6.1-0.2-12.2-0.1-18.3c0-0.4-0.2-0.5-0.5-0.5H196c-0.3,0-0.5,0.2-0.5,0.5v3.1c0,0.5-0.2,0.6-0.6,0.4l-11.7-6.8
		c-0.2-0.1-0.2-0.3-0.1-0.5c0-0.1,0.1-0.1,0.1-0.1l11.6-6.7c0.4-0.2,0.6-0.1,0.6,0.4v3.2C195.5,14.1,195.7,14.3,196,14.3z"/>
	<path d="M53.7,60.3c15.5,1.6,20.1,20.7,4.3,26.9c-7.7,3-16.6,1.2-24.6-1.3c-0.3-0.1-0.4-0.3-0.3-0.6l1.3-2.9
		c0.1-0.3,0.4-0.4,0.7-0.3c7.4,2.2,21.4,4.6,26.4-3.1c3.8-5.8,0.1-12.4-6.3-13.7c-8.9-1.9-20-0.3-21.7-12.4
		C32,40.5,46.5,35.7,55.8,36.9c2.8,0.4,6.2,1.2,10.3,2.6c0.3,0.1,0.4,0.3,0.3,0.6l-1.3,3c-0.2,0.4-0.5,0.5-0.9,0.4
		c-7.1-2.2-14-3.3-20.8-0.4c-4.5,1.9-7.2,7.1-4.4,11.7C42.2,60.2,48.3,59.8,53.7,60.3z"/>
	<path class="st0" d="M219.8,42.4V88c0,0.2-0.1,0.3-0.3,0.3h-3.6c-0.2,0-0.3-0.1-0.3-0.3V42.4c0-0.2-0.1-0.3-0.3-0.3h-19.1
		c-0.2,0-0.3-0.1-0.3-0.3v-4.1c0-0.2,0.1-0.3,0.3-0.3h43.2c0.2,0,0.3,0.1,0.3,0.3c0,0,0,0,0,0l-0.1,4.1c0,0.2-0.1,0.3-0.3,0.3h-19.1
		C219.9,42.1,219.8,42.2,219.8,42.4z"/>
	<path class="st0" d="M438,45.6h0.6c1.5,0,2.7,1.2,2.7,2.7v7.4c0,1.5-1.2,2.7-2.7,2.7H438c-1.5,0-2.7-1.2-2.7-2.7v-7.4
		C435.3,46.8,436.5,45.6,438,45.6z"/>
	<path class="st0" d="M278.6,87.8c-0.1,0-0.2,0-0.3,0c-0.3-0.1-0.4-0.4-0.3-0.7l16.5-40c0.2-0.6,0.5-0.6,0.7,0l16.5,39.7
		c0.2,0.4,0,0.7-0.4,0.8l-2.9,0.8c-0.3,0.1-0.6,0-0.7-0.3L301.7,74c-0.1-0.3-0.4-0.5-0.7-0.5H289c-0.4,0-0.6,0.2-0.7,0.5l-6,14.1
		c-0.1,0.3-0.5,0.5-0.9,0.4l-2.5-0.7C278.8,87.8,278.7,87.8,278.6,87.8z M290.5,69.1c-0.1,0.2,0,0.5,0.3,0.5c0,0,0.1,0,0.1,0
		l8.3-0.1c0.2,0,0.4-0.2,0.4-0.4c0-0.1,0-0.1,0-0.1l-4.2-10.9c-0.1-0.2-0.3-0.3-0.5-0.2c-0.1,0-0.2,0.1-0.2,0.3L290.5,69.1z"/>
	<path d="M92.2,52.4V88c0,0.2-0.1,0.3-0.3,0.3h-3.6c-0.2,0-0.3-0.1-0.3-0.3V52.4c0-0.2-0.1-0.3-0.3-0.3H72.6c-0.2,0-0.3-0.1-0.3-0.3
		v-3.9c0-0.2,0.1-0.3,0.3-0.3h34.6c0.2,0,0.3,0.1,0.3,0.3v3.9c0,0.2-0.1,0.3-0.3,0.3H92.6C92.4,52.1,92.2,52.2,92.2,52.4z"/>
	<path d="M118.1,62.3h12.6c0.2,0,0.4,0.2,0.4,0.4c0,0,0,0,0,0l-0.4,3.7c0,0.2-0.2,0.3-0.4,0.3l-12.2-0.2c-0.2,0-0.4,0.2-0.4,0.3
		c0,0,0,0,0,0v16.6c0,0.2,0.2,0.4,0.4,0.4h20.3c0.2,0,0.4,0.2,0.4,0.4v3.8c0,0.2-0.2,0.4-0.4,0.4h-24.6c-0.2,0-0.4-0.2-0.4-0.4l0-40
		c0-0.2,0.2-0.4,0.4-0.4l0,0H137c0.2,0,0.4,0.2,0.4,0.4c0,0,0,0,0,0l-0.1,3.8c0,0.2-0.2,0.4-0.4,0.4h-18.8c-0.2,0-0.4,0.2-0.4,0.4
		l0,0v9.5C117.8,62.1,117.9,62.3,118.1,62.3L118.1,62.3z"/>
	<path d="M148.2,73.5l0.1,14.3c0,0.3-0.2,0.5-0.5,0.5h-3.5c-0.3,0-0.5-0.2-0.5-0.5V48.1c0-0.3,0.2-0.5,0.5-0.5
		c5.3,0,12.5-0.6,16.9,0.9c10.1,3.5,11.6,17.4,2.4,23c-4,2.4-10.2,1.7-14.8,1.6C148.4,73,148.2,73.2,148.2,73.5
		C148.2,73.5,148.2,73.5,148.2,73.5z M148.2,52.3v16.1c0,0.1,0.1,0.2,0.2,0.2l0,0h8.7c4.5,0,8.1-3.7,8.1-8.2c0,0,0,0,0,0v-0.2
		c0-4.5-3.6-8.2-8.1-8.2c0,0,0,0,0,0h-8.7C148.3,52.1,148.2,52.1,148.2,52.3L148.2,52.3z"/>
	<path class="st0" d="M263.3,72.3l11.8,15.3c0.3,0.4,0.2,0.6-0.3,0.6h-4.4c-0.3,0-0.6-0.2-0.8-0.4L258.8,74
		c-0.4-0.5-0.9-0.7-1.5-0.7l-6.9,0c-0.4,0-0.6,0.2-0.6,0.6v13.8c0,0.4-0.2,0.6-0.6,0.6h-3.2c-0.4,0-0.6-0.2-0.6-0.6V48.1
		c0-0.3,0.2-0.5,0.5-0.5c9.2,0,20.5-1.8,23.5,10c1.5,5.7-0.5,10.4-5.9,14.1C263.1,71.9,263.1,72.1,263.3,72.3z M249.7,52.3l0,16.2
		c0,0.1,0.1,0.2,0.2,0.2l6.9,0c4.6,0,8.4-3.5,8.4-7.8v-1.1c0-4.3-3.8-7.8-8.4-7.8c0,0,0,0,0,0l-6.9,0
		C249.8,52.1,249.7,52.2,249.7,52.3z"/>
	<path class="st0" d="M318.8,47.8c0-0.1,0.1-0.2,0.2-0.2h0H331c11.3,0,20.5,9,20.5,20.1v0v0.5c0,11.1-9.2,20.1-20.5,20.1l0,0H319
		c-0.1,0-0.2-0.1-0.2-0.2V47.8z M323.2,52.4l0.1,31.2c0,0.2,0.1,0.3,0.3,0.3c0,0,0,0,0,0l7.8,0c8.8,0,15.9-7,15.9-15.6v-0.6
		c0-8.6-7.2-15.5-16-15.5c0,0,0,0,0,0l-7.8,0C323.3,52.1,323.2,52.2,323.2,52.4z"/>
	<path class="st0" d="M365.7,62.3l12.2-0.1c0.2,0,0.4,0.2,0.4,0.4l0,0v3.5c0,0.2-0.2,0.4-0.4,0.4l0,0l-12.2-0.1
		c-0.2,0-0.4,0.2-0.4,0.4l0,0v16.5c0,0.2,0.2,0.4,0.4,0.4l0,0l19.9-0.1c0.2,0,0.4,0.2,0.4,0.4l0.3,3.7c0,0.2-0.2,0.4-0.4,0.4
		c0,0,0,0,0,0h-24.7c-0.2,0-0.4-0.2-0.4-0.4l0,0V48c0-0.2,0.2-0.4,0.4-0.4l0,0h23.2c0.2,0,0.4,0.2,0.4,0.4l0,0v3.7
		c0,0.2-0.2,0.4-0.4,0.4l0,0h-18.7c-0.2,0-0.4,0.2-0.4,0.4l0,0v9.5C365.2,62.2,365.4,62.3,365.7,62.3z"/>
	<path class="st0" d="M403.6,73.2l-7.7,0.2c-0.3,0-0.5,0.2-0.5,0.5v14c0,0.3-0.2,0.5-0.5,0.5h-3.1c-0.4,0-0.6-0.2-0.6-0.6V48.1
		c0-0.3,0.2-0.5,0.5-0.5c5,0,11.2-0.6,15.5,1c9.9,3.8,11.6,17.6,2,22.9c-0.3,0.2-0.4,0.4-0.1,0.7L421,87.6c0.3,0.4,0.2,0.7-0.3,0.7
		h-4.3c-0.3,0-0.6-0.1-0.8-0.4l-11.1-14.3C404.2,73.3,404,73.2,403.6,73.2z M395.5,52.7l0,15.4c0,0.4,0.3,0.7,0.7,0.7l0,0l6.1,0
		c5.1,0,9.2-3.7,9.2-8.3c0,0,0,0,0,0v-0.2c0-4.6-4.1-8.3-9.2-8.3l-6.1,0C395.8,52,395.5,52.3,395.5,52.7L395.5,52.7z"/>
	<path class="st1" d="M148.2,52.3c0-0.1,0.1-0.2,0.2-0.2l0,0h8.7c4.5,0,8.1,3.7,8.1,8.2c0,0,0,0,0,0v0.2c0,4.5-3.6,8.2-8.1,8.2
		c0,0,0,0,0,0h-8.7c-0.1,0-0.2-0.1-0.2-0.2l0,0V52.3z"/>
	<path class="st1" d="M249.7,52.3c0-0.1,0.1-0.2,0.2-0.2l6.9,0c4.6,0,8.4,3.5,8.4,7.8c0,0,0,0,0,0v1.1c0,4.3-3.7,7.8-8.4,7.8l-6.9,0
		c-0.1,0-0.2-0.1-0.2-0.2L249.7,52.3z"/>
	<path class="st1" d="M323.2,52.4c0-0.2,0.1-0.3,0.3-0.3l7.8,0c8.8,0,16,6.9,16,15.5c0,0,0,0,0,0v0.6c0,8.6-7.1,15.6-15.9,15.6
		l-7.8,0c-0.2,0-0.3-0.1-0.3-0.3c0,0,0,0,0,0L323.2,52.4z"/>
	<path class="st1" d="M395.5,52.7c0-0.4,0.3-0.7,0.7-0.7l0,0l6.1,0c5.1,0,9.2,3.7,9.2,8.3v0.2c0,4.6-4.1,8.3-9.2,8.3c0,0,0,0,0,0
		l-6.1,0c-0.4,0-0.7-0.3-0.7-0.7l0,0L395.5,52.7z"/>
	<path class="st1" d="M290.5,69.1l4-11c0.1-0.2,0.3-0.3,0.5-0.3c0.1,0,0.2,0.1,0.3,0.2l4.2,10.9c0.1,0.2,0,0.5-0.2,0.5
		c0,0-0.1,0-0.1,0l-8.3,0.1c-0.2,0-0.4-0.2-0.4-0.4C290.4,69.2,290.4,69.1,290.5,69.1z"/>
	<circle cx="16.6" cy="61.4" r="2.8"/>
	<circle class="st0" cx="438.4" cy="64.4" r="2.8"/>
	<path d="M16.5,67.5l0.4,0c1.6,0,2.8,1.3,2.8,2.8l0,7.1c0,1.6-1.3,2.8-2.8,2.8l-0.4,0c-1.6,0-2.8-1.3-2.8-2.8l0-7.1
		C13.7,68.8,15,67.5,16.5,67.5z"/>
	<path d="M169.8,104.8v-3.2c0-0.4,0.2-0.5,0.5-0.3l11.6,6.7c0.2,0.1,0.3,0.4,0.2,0.6c0,0.1-0.1,0.1-0.2,0.2l-11.6,6.7
		c-0.2,0.1-0.4,0-0.5-0.1c0-0.1-0.1-0.1,0-0.2l0.1-3.2c0-0.4-0.2-0.7-0.6-0.7l-153.2,0c-1.3,0-2.3-1-2.3-2.3c0,0,0,0,0,0
		c0.1-7.7,0.1-15.6,0.1-23.8c0-2.4,5.8-3.6,5.9,1.1c0,6.2,0.1,12.4,0.1,18.5c0,0.3,0.2,0.5,0.5,0.5h149
		C169.6,105.3,169.8,105.1,169.8,104.8z"/>
</g>
</svg>
